<mxfile host="app.diagrams.net" modified="2023-08-20T22:45:58.755Z" agent="Mozilla/5.0 (Windows NT 10.0; Win64; x64) AppleWebKit/537.36 (KHTML, like Gecko) Chrome/116.0.0.0 Safari/537.36" version="21.6.8" etag="FYT0bpdwtbz3eQ2fx5_1" type="github">
  <diagram name="Page-1" id="WjLWsfFlMQ4f3JKecj48">
    <mxGraphModel>
      <root>
        <mxCell id="0" />
        <mxCell id="1" parent="0" />
      </root>
    </mxGraphModel>
  </diagram>
</mxfile>
